<?xml version="1.0" encoding="utf-8"?>
<!-- Generator: Adobe Illustrator 24.1.3, SVG Export Plug-In . SVG Version: 6.00 Build 0)  -->
<svg version="1.1" id="Calque_1" xmlns="http://www.w3.org/2000/svg" xmlns:xlink="http://www.w3.org/1999/xlink" x="0px" y="0px"
	 viewBox="0 0 100 125" style="enable-background:new 0 0 100 125;" xml:space="preserve">
<style type="text/css">
	.st0{fill:#FFFFFF;}
</style>
<path class="st0" d="M94.4,1C83.2,5.2,42.8,63.8,42.8,63.8l-14.3-23l-12.3,7.4l21.7,33.3h9.6c0,0,32.9-46.5,46.9-58.1V1z"/>
<path class="st0" d="M6.6,83.5c0,5.4,4.4,9.8,9.8,9.8l52.5,0.1c5.4,0,9.8-4.4,9.8-9.8l-0.1-31.5h5.8v31.5c0,8.5-6.9,15.4-15.4,15.4
	l-53.2-0.1c-8.1,0-14.7-6.6-14.7-14.7L1,31.2c0-8.5,6.9-15.4,15.4-15.4l48.8-0.1v5.8l-48.7,0c-5.4,0-9.8,4.4-9.8,9.8L6.6,83.5z"/>
</svg>
