<?xml version="1.0" encoding="utf-8"?>
<svg width="30px" height="29px" viewBox="0 0 30 29" version="1.1" xmlns:xlink="http://www.w3.org/1999/xlink" xmlns="http://www.w3.org/2000/svg">
  <desc>Created with Lunacy</desc>
  <defs>
    <path d="M16.4671 6.75279L17.9471 7.2167C18.0761 7.25751 18.1621 7.37896 18.1591 7.51336L18.0611 11.0584C18.0571 11.1928 17.9641 11.3093 17.8331 11.3421L16.3291 11.7254C16.2141 12.034 16.0791 12.3356 15.9271 12.6233L16.6441 13.9922C16.7061 14.1116 16.6811 14.258 16.5831 14.3516L13.9961 16.7886C13.8971 16.8822 13.7491 16.8981 13.6331 16.8294L12.2991 16.0419C12.0021 16.1773 11.6931 16.2948 11.3761 16.3924L10.9091 17.8657C10.8691 17.9922 10.7521 18.0778 10.6201 18.0778C10.6171 18.0778 10.6141 18.0778 10.6121 18.0768L7.05108 17.9792C6.91608 17.9762 6.79908 17.8836 6.76608 17.7532L6.38208 16.256C6.07108 16.1405 5.76808 16.0071 5.47908 15.8558L4.10408 16.5686C3.98308 16.6313 3.83708 16.6064 3.74308 16.5088L1.29508 13.9334C1.20108 13.8349 1.18508 13.6875 1.25408 13.5711L2.04508 12.2441C1.90808 11.9484 1.79108 11.6398 1.69308 11.3252L0.212076 10.8603C0.0830761 10.8205 -0.00292394 10.699 7.60644e-05 10.5646L0.0980761 7.01958C0.102076 6.88519 0.195076 6.76871 0.326076 6.73586L1.83008 6.35259C1.94508 6.04298 2.08008 5.74234 2.23208 5.45364L1.51608 4.0848C1.45308 3.96534 1.47808 3.819 1.57608 3.72642L4.16308 1.28939C4.26208 1.19582 4.41108 1.17989 4.52708 1.24858L5.86008 2.03504C6.15608 1.89965 6.46608 1.78317 6.78308 1.68461L7.25008 0.212247C7.29108 0.0828295 7.41208 -0.00477587 7.54708 0.000201706L11.1081 0.0977622C11.2431 0.101744 11.3601 0.194327 11.3931 0.32474L11.7781 1.822C12.0901 1.93648 12.3921 2.07087 12.6811 2.22219L14.0551 1.50841C14.1761 1.44669 14.3221 1.47157 14.4161 1.56913L16.8651 4.14453C16.9581 4.24209 16.9741 4.39043 16.9051 4.50591L16.1141 5.83293C16.2511 6.12959 16.3681 6.43721 16.4671 6.75279ZM8.96508 13.1908C10.0761 13.2197 11.1381 12.8175 11.9471 12.0549C12.7571 11.2923 13.2191 10.262 13.2501 9.15297C13.2801 8.04397 12.8751 6.98972 12.1091 6.18435C11.3431 5.37798 10.3081 4.91805 9.19408 4.88719C9.15508 4.88619 9.11508 4.88619 9.07608 4.88619C8.00608 4.88619 6.99208 5.28739 6.21208 6.02208C5.40308 6.78564 4.94008 7.816 4.90908 8.925C4.87908 10.034 5.28408 11.0883 6.05008 11.8936C6.81608 12.699 7.85108 13.1599 8.96508 13.1908Z" transform="matrix(0.9743701 0.224951 -0.224951 0.9743701 4.68433 7.140105)" id="path_1" />
    <path d="M12.2182 6.03615C12.2998 6.0651 12.3493 6.14801 12.3358 6.23277L12.0914 7.70711C12.0779 7.79187 12.0048 7.85477 11.9182 7.85633L9.77787 7.88956C9.65073 8.12802 9.49983 8.35387 9.32989 8.56002C9.15973 8.76714 8.9667 8.95777 8.7566 9.12915L9.14495 11.225C9.16129 11.3095 9.11331 11.3925 9.03333 11.4231L7.62821 11.9502C7.54726 11.9807 7.45694 11.9497 7.41242 11.8761L6.31259 10.0469C5.7715 10.0655 5.22652 9.97706 4.72338 9.78786L3.09556 11.169C3.05089 11.2068 2.99265 11.2189 2.93906 11.2066C2.91275 11.2006 2.88757 11.1897 2.86613 11.1715L1.70542 10.2242C1.63797 10.1699 1.62096 10.0751 1.66205 9.99971L2.7031 8.13938C2.41832 7.68568 2.22364 7.17096 2.13562 6.63886L0.11802 5.92585C0.0364741 5.89689 -0.0120879 5.81421 0.00261092 5.7287L0.244849 4.25489C0.259548 4.16938 0.332408 4.10745 0.418979 4.10589L2.55934 4.07267C2.68671 3.83323 2.83739 3.60835 3.00733 3.4022C3.17749 3.19508 3.37051 3.00445 3.57965 2.83285L3.19226 0.737193C3.17593 0.652724 3.22414 0.568785 3.30509 0.538349L4.70924 0.0110118C4.78996 -0.0184544 4.88125 0.0127441 4.92577 0.0863206L6.02463 1.91536C6.56475 1.89646 7.1107 1.98516 7.61384 2.17436L9.24165 0.793199C9.30807 0.736944 9.40386 0.73546 9.47109 0.790758L10.6318 1.73798C10.6983 1.79208 10.7165 1.88618 10.6744 1.96131L9.63412 3.82284C9.9189 4.27654 10.1136 4.79126 10.2006 5.32314L12.2182 6.03615ZM5.72523 7.8797C6.42775 8.04116 7.1959 7.80903 7.68315 7.21706C8.36762 6.38537 8.24459 5.15455 7.41013 4.47336C7.00534 4.1433 6.49604 3.98946 5.97496 4.04135C5.45508 4.09249 4.98563 4.34219 4.65407 4.74516C3.9696 5.57685 4.09263 6.80767 4.92709 7.48885C5.1679 7.68519 5.44072 7.81431 5.72523 7.8797Z" transform="matrix(0.9743701 0.224951 -0.224951 0.9743701 17.22429 0.9127344)" id="path_2" />
    <clipPath id="clip_1">
      <use xlink:href="#path_1" />
    </clipPath>
    <clipPath id="clip_2">
      <use xlink:href="#path_2" />
    </clipPath>
  </defs>
  <g id="Icon-Démarche-/-Méthode">
    <g id="Stroke-1">
      <g clip-path="url(#clip_1)">
        <use xlink:href="#path_1" fill="none" stroke="#024579" stroke-width="2" stroke-linecap="round" stroke-linejoin="round" />
      </g>
    </g>
    <g id="Stroke-3">
      <g clip-path="url(#clip_2)">
        <use xlink:href="#path_2" fill="none" stroke="#024579" stroke-width="2" stroke-linecap="round" stroke-linejoin="round" />
      </g>
    </g>
  </g>
</svg>