<?xml version="1.0" encoding="utf-8"?>
<svg width="25px" height="28px" viewBox="0 0 25 28" version="1.1" xmlns:xlink="http://www.w3.org/1999/xlink" xmlns="http://www.w3.org/2000/svg">
  <desc>Created with Lunacy</desc>
  <g id="Icon-Résultat-obtenu" transform="translate(0.5 0.5)">
    <path d="M0 26.013L0 4.5942L4.5972 0L19.4686 0L19.4686 16.737" transform="translate(0.225 0.22752)" id="Stroke-1" fill="none" stroke="#0E427A" stroke-width="1" stroke-linecap="round" stroke-linejoin="round" />
    <path d="M19.4688 0L19.4688 2.3322L1.38334e-13 2.3322" transform="translate(0.225 24.01488)" id="Stroke-3" fill="none" stroke="#0E427A" stroke-width="1" stroke-linecap="round" stroke-linejoin="round" />
    <path d="M0 4.5972L4.5972 0" transform="translate(0.225 0.2247)" id="Stroke-5" fill="none" stroke="#0E427A" stroke-width="1" stroke-linecap="round" stroke-linejoin="round" />
    <path d="M4.5972 0L4.5972 4.6038L0 4.5972" transform="translate(0.22476 0.22494)" id="Stroke-7" fill="none" stroke="#0E427A" stroke-width="1" stroke-linecap="round" stroke-linejoin="round" />
    <path d="M0 0.3L7.7502 0.3" transform="translate(8.146319 4.884)" id="Stroke-10" fill="none" stroke="#0E427A" stroke-width="1" stroke-linecap="round" stroke-linejoin="round" />
    <path d="M0 0.3L12.8742 0.3" transform="translate(3.02226 8.12484)" id="Stroke-11" fill="none" stroke="#0E427A" stroke-width="1" stroke-linecap="round" stroke-linejoin="round" />
    <path d="M-1.30104e-18 0.5L1.5 0.5" transform="translate(11.9 11.16562)" id="Stroke-12" fill="none" stroke="#0E427A" stroke-width="1" stroke-linecap="round" stroke-linejoin="round" />
    <path d="M0 0.3L3.8448 0.3" transform="translate(3.02226 11.36562)" id="Stroke-13" fill="none" stroke="#0E427A" stroke-width="1" stroke-linecap="round" stroke-linejoin="round" />
    <path d="M0 0.3L6.4374 0.3" transform="translate(9.459359 14.60646)" id="Stroke-14" fill="none" stroke="#0E427A" stroke-width="1" stroke-linecap="round" stroke-linejoin="round" />
    <path d="M0 0.3L3.0246 0.3" transform="translate(3.02226 14.60646)" id="Stroke-15" fill="none" stroke="#0E427A" stroke-width="1" stroke-linecap="round" stroke-linejoin="round" />
    <path d="M0 0.3L1.6272 0.3" transform="translate(12.02142 17.84754)" id="Stroke-16" fill="none" stroke="#0E427A" stroke-width="1" stroke-linecap="round" stroke-linejoin="round" />
    <path d="M0 0.3L4.5 0.3" transform="translate(3.02226 17.84754)" id="Stroke-17" fill="none" stroke="#0E427A" stroke-width="1" stroke-linecap="round" stroke-linejoin="round" />
    <path d="M0 0.3L12.8742 0.3" transform="translate(3.02226 21.08838)" id="Stroke-18" fill="none" stroke="#0E427A" stroke-width="1" stroke-linecap="round" stroke-linejoin="round" />
    <path d="M5.74387 5.49658L5.49596 5.74387C5.15446 6.08538 4.60099 6.08538 4.25948 5.74387L0.049273 1.53366C-0.0164243 1.46796 -0.0164243 1.36136 0.049273 1.29566L1.29566 0.049273C1.36136 -0.0164243 1.46796 -0.0164243 1.53366 0.049273L5.74387 4.25948C6.08538 4.60161 6.08538 5.15508 5.74387 5.49658Z" transform="matrix(0.9975641 -0.06975647 0.06975647 0.9975641 17.10108 18.38544)" id="Stroke-19" fill="none" stroke="#0E427A" stroke-width="1" stroke-linecap="round" stroke-linejoin="round" />
    <path d="M1.01679 0L2 0.98288L0.98321 2L0 1.01645" transform="matrix(0.9975641 -0.06975647 0.06975647 0.9975641 16.03376 17.45763)" id="Stroke-21" fill="none" stroke="#0E427A" stroke-width="1" stroke-linecap="round" stroke-linejoin="round" />
    <path d="M8.53557 1.4645C10.4881 3.41717 10.4881 6.58267 8.53557 8.53597C6.58299 10.488 3.41701 10.488 1.46443 8.53597C-0.488145 6.58267 -0.488145 3.41717 1.46443 1.4645C3.41701 -0.488168 6.58299 -0.488168 8.53557 1.4645Z" transform="matrix(0.9975641 -0.06975647 0.06975647 0.9975641 7.495191 10.03517)" id="Stroke-23" fill="none" stroke="#0E427A" stroke-width="1" stroke-linecap="round" stroke-linejoin="round" />
  </g>
</svg>