<?xml version="1.0" encoding="utf-8"?>
<!-- Generator: Adobe Illustrator 24.1.3, SVG Export Plug-In . SVG Version: 6.00 Build 0)  -->
<svg version="1.1" id="Calque_1" xmlns="http://www.w3.org/2000/svg" xmlns:xlink="http://www.w3.org/1999/xlink" x="0px" y="0px"
	 viewBox="0 0 43.8 29.5" style="enable-background:new 0 0 43.8 29.5;" xml:space="preserve">
<style type="text/css">
	.st0{clip-path:url(#SVGID_2_);fill:#024579;}
</style>
<g>
	<g>
		<defs>
			<rect id="SVGID_1_" width="43.8" height="29.5"/>
		</defs>
		<clipPath id="SVGID_2_">
			<use xlink:href="#SVGID_1_"  style="overflow:visible;"/>
		</clipPath>
		<path class="st0" d="M34.1,26.1h7c0.3,0,0.5,0.1,0.5,0.2v1c0,0.1-0.2,0.2-0.5,0.2h-7c-0.3,0-0.5-0.1-0.5-0.2v-1
			C33.6,26.2,33.8,26.1,34.1,26.1 M26.9,8c4.1,0,7.4,3.4,7.4,7.5c0,4.1-3.3,7.5-7.4,7.5c-4.1,0-7.4-3.4-7.4-7.5
			C19.5,11.4,22.8,8,26.9,8 M26.9,6.9c-4.7,0-8.5,3.9-8.5,8.7c0,4.8,3.8,8.7,8.5,8.7c4.7,0,8.5-3.9,8.5-8.7
			C35.4,10.8,31.6,6.9,26.9,6.9 M26.9,6c5.1,0,9.3,4.2,9.3,9.5c0,5.2-4.2,9.5-9.3,9.5c-5.1,0-9.3-4.2-9.3-9.5
			C17.6,10.3,21.7,6,26.9,6 M3.4,3.6h9.9c0.4,0,0.7,0.3,0.7,0.7V8c0,0.4-0.3,0.7-0.7,0.7H3.4C3,8.7,2.7,8.4,2.7,8V4.4
			C2.7,4,3,3.6,3.4,3.6 M31.3,0c-0.4,0-0.7,0.3-0.7,0.7v0.7H1.4C0.6,1.4,0,2.1,0,2.8v25.3c0,0.8,0.6,1.4,1.4,1.4h41
			c0.8,0,1.4-0.6,1.4-1.4V2.8c0-0.8-0.6-1.4-1.4-1.4h-2.3V0.7c0-0.4-0.3-0.7-0.7-0.7L31.3,0L31.3,0z"/>
	</g>
</g>
</svg>
