<svg width="48.97" height="54.63" viewBox="0 0 48.97 54.63" xmlns="http://www.w3.org/2000/svg" xmlns:xlink="http://www.w3.org/1999/xlink" overflow="hidden"><defs></defs><g><path d="M43.62 50.69C43.16 50.69 42.72 50.51 42.39 50.18L29.18 36.97C29.03 36.82 28.95 36.63 28.95 36.42 28.95 36.21 29.03 36.01 29.18 35.87L32.07 32.98C32.36 32.68 32.88 32.68 33.18 32.98L46.39 46.19C46.72 46.52 46.9 46.96 46.9 47.42 46.9 47.88 46.72 48.32 46.39 48.65L44.86 50.18C44.52 50.51 44.08 50.69 43.62 50.69Z" stroke="#024579" stroke-linejoin="round" stroke-miterlimit="10" fill="none"/><path d="M21.56 15.22C18.85 15.22 16.3 16.28 14.39 18.19 12.48 20.1 11.42 22.65 11.42 25.36 11.42 28.07 12.48 30.62 14.39 32.53 16.31 34.45 18.85 35.5 21.56 35.5 24.27 35.5 26.82 34.44 28.73 32.53 30.65 30.61 31.7 28.07 31.7 25.36 31.7 22.65 30.64 20.1 28.73 18.19L28.73 18.19C26.82 16.27 24.27 15.22 21.56 15.22Z" stroke="#024579" stroke-linejoin="round" stroke-miterlimit="10" fill="none"/><g><line x1="27.58" y1="33.53" x2="29.54" y2="35.5" stroke="#024579" stroke-linejoin="round" stroke-miterlimit="10" fill="none"/><line x1="29.73" y1="31.38" x2="31.7" y2="33.35" stroke="#024579" stroke-linejoin="round" stroke-miterlimit="10" fill="none"/></g></g><g><path d="M20.19 28.21C20.19 27.25 20.3 26.49 20.52 25.94 20.74 25.39 21.09 24.9 21.57 24.5 22.06 24.09 22.43 23.72 22.68 23.38 22.93 23.04 23.06 22.67 23.06 22.26 23.06 21.27 22.63 20.77 21.78 20.77 21.39 20.77 21.07 20.92 20.82 21.2 20.58 21.49 20.45 21.88 20.44 22.37L17.1 22.37C17.11 21.06 17.53 20.03 18.34 19.3 19.15 18.57 20.3 18.2 21.77 18.2 23.23 18.2 24.37 18.54 25.18 19.22 25.98 19.9 26.39 20.86 26.39 22.11 26.39 22.66 26.28 23.15 26.06 23.6 25.84 24.05 25.5 24.5 25.02 24.97L23.89 26.02C23.57 26.33 23.34 26.65 23.22 26.97 23.09 27.3 23.03 27.71 23.01 28.21L20.19 28.21ZM19.79 31.21C19.79 30.72 19.97 30.32 20.32 30.01 20.67 29.7 21.11 29.54 21.64 29.54 22.17 29.54 22.6 29.7 22.96 30.01 23.31 30.32 23.49 30.72 23.49 31.21 23.49 31.7 23.31 32.1 22.96 32.41 22.61 32.72 22.17 32.88 21.64 32.88 21.11 32.88 20.68 32.72 20.32 32.41 19.96 32.1 19.79 31.7 19.79 31.21Z" stroke="#024579" stroke-linejoin="round" stroke-miterlimit="10" fill="none"/></g><g><path d="M39.86 26.21C39.86 24.86 40.01 23.79 40.32 23.01 40.63 22.23 41.12 21.55 41.81 20.97 42.5 20.4 43.02 19.87 43.37 19.39 43.73 18.91 43.9 18.39 43.9 17.81 43.9 16.41 43.3 15.71 42.09 15.71 41.53 15.71 41.09 15.91 40.74 16.32 40.4 16.73 40.22 17.28 40.2 17.97L35.51 17.97C35.53 16.12 36.11 14.68 37.26 13.64 38.41 12.6 40.02 12.09 42.09 12.09 44.15 12.09 45.75 12.57 46.89 13.52 48.02 14.47 48.59 15.83 48.59 17.59 48.59 18.36 48.44 19.06 48.13 19.69 47.82 20.32 47.33 20.96 46.66 21.62L45.06 23.11C44.61 23.55 44.29 23.99 44.12 24.45 43.94 24.91 43.85 25.49 43.83 26.19L39.86 26.19ZM39.29 30.43C39.29 29.74 39.54 29.18 40.03 28.74 40.53 28.3 41.14 28.08 41.88 28.08 42.62 28.08 43.24 28.3 43.73 28.74 44.23 29.18 44.47 29.74 44.47 30.43 44.47 31.12 44.22 31.68 43.73 32.12 43.23 32.56 42.62 32.78 41.88 32.78 41.14 32.78 40.52 32.56 40.03 32.12 39.54 31.68 39.29 31.11 39.29 30.43Z" stroke="#024579" stroke-linejoin="round" stroke-miterlimit="10" fill="none"/></g><g><path d="M21.61 50.08C21.61 49.22 21.71 48.54 21.9 48.04 22.09 47.54 22.41 47.11 22.85 46.74 23.29 46.37 23.62 46.04 23.85 45.74 24.08 45.44 24.19 45.1 24.19 44.74 24.19 43.85 23.81 43.4 23.04 43.4 22.69 43.4 22.4 43.53 22.18 43.79 21.96 44.05 21.85 44.4 21.83 44.84L18.84 44.84C18.85 43.66 19.22 42.74 19.95 42.08 20.68 41.42 21.71 41.09 23.03 41.09 24.34 41.09 25.36 41.39 26.09 42 26.82 42.61 27.17 43.47 27.17 44.59 27.17 45.08 27.07 45.52 26.88 45.93 26.69 46.33 26.37 46.74 25.94 47.16L24.92 48.11C24.63 48.39 24.43 48.67 24.32 48.96 24.21 49.25 24.15 49.62 24.13 50.07L21.61 50.07ZM21.24 52.77C21.24 52.33 21.4 51.98 21.71 51.7 22.03 51.42 22.42 51.28 22.89 51.28 23.36 51.28 23.76 51.42 24.07 51.7 24.39 51.98 24.54 52.34 24.54 52.77 24.54 53.21 24.38 53.56 24.07 53.84 23.75 54.12 23.36 54.26 22.89 54.26 22.42 54.26 22.02 54.12 21.71 53.84 21.4 53.56 21.24 53.2 21.24 52.77Z" stroke="#024579" stroke-linejoin="round" stroke-miterlimit="10" fill="none"/></g><g><path d="M3.29 42.16C3.29 41.43 3.37 40.86 3.54 40.44 3.7 40.02 3.97 39.66 4.34 39.35 4.71 39.04 4.99 38.76 5.18 38.5 5.37 38.24 5.47 37.96 5.47 37.65 5.47 36.9 5.15 36.52 4.5 36.52 4.2 36.52 3.96 36.63 3.78 36.85 3.6 37.07 3.5 37.36 3.49 37.74L0.96 37.74C0.97 36.75 1.28 35.97 1.9 35.42 2.52 34.87 3.38 34.59 4.49 34.59 5.6 34.59 6.46 34.85 7.07 35.36 7.68 35.87 7.98 36.6 7.98 37.54 7.98 37.95 7.9 38.33 7.73 38.67 7.56 39.01 7.3 39.35 6.94 39.71L6.08 40.51C5.84 40.74 5.67 40.98 5.57 41.23 5.48 41.48 5.42 41.79 5.41 42.17L3.29 42.17ZM2.99 44.42C2.99 44.05 3.12 43.75 3.39 43.51 3.66 43.27 3.99 43.16 4.38 43.16 4.77 43.16 5.11 43.28 5.38 43.51 5.65 43.74 5.78 44.05 5.78 44.42 5.78 44.79 5.65 45.09 5.38 45.33 5.11 45.57 4.78 45.68 4.38 45.68 3.98 45.68 3.65 45.56 3.39 45.33 3.12 45.09 2.99 44.79 2.99 44.42Z" stroke="#024579" stroke-linejoin="round" stroke-miterlimit="10" fill="none"/></g><g><path d="M4.14 19.71C4.14 18.54 4.27 17.61 4.54 16.93 4.81 16.25 5.23 15.66 5.83 15.17 6.42 14.67 6.88 14.22 7.18 13.8 7.48 13.38 7.64 12.93 7.64 12.43 7.64 11.22 7.12 10.61 6.07 10.61 5.59 10.61 5.2 10.79 4.9 11.14 4.6 11.49 4.45 11.97 4.43 12.57L0.38 12.57C0.4 10.96 0.9 9.71 1.9 8.82 2.9 7.92 4.29 7.48 6.09 7.48 7.88 7.48 9.27 7.89 10.25 8.72 11.23 9.55 11.73 10.72 11.73 12.25 11.73 12.92 11.6 13.52 11.33 14.07 11.06 14.62 10.64 15.17 10.05 15.74L8.67 17.03C8.28 17.41 8 17.79 7.85 18.19 7.7 18.59 7.61 19.09 7.6 19.7L4.14 19.7ZM3.65 23.37C3.65 22.78 3.86 22.29 4.29 21.91 4.72 21.53 5.26 21.34 5.9 21.34 6.54 21.34 7.08 21.53 7.51 21.91 7.94 22.29 8.15 22.78 8.15 23.37 8.15 23.96 7.94 24.45 7.51 24.83 7.08 25.21 6.54 25.4 5.9 25.4 5.26 25.4 4.72 25.21 4.29 24.83 3.87 24.45 3.65 23.96 3.65 23.37Z" stroke="#024579" stroke-linejoin="round" stroke-miterlimit="10" fill="none"/></g><g><path d="M26.06 8.71C26.06 7.91 26.15 7.28 26.33 6.82 26.51 6.36 26.8 5.96 27.21 5.62 27.62 5.28 27.92 4.97 28.13 4.69 28.34 4.41 28.45 4.1 28.45 3.76 28.45 2.93 28.09 2.52 27.38 2.52 27.05 2.52 26.79 2.64 26.58 2.88 26.38 3.12 26.27 3.45 26.26 3.86L23.48 3.86C23.49 2.76 23.84 1.91 24.52 1.3 25.2 0.69 26.15 0.38 27.38 0.38 28.6 0.38 29.55 0.66 30.22 1.23 30.89 1.79 31.23 2.6 31.23 3.64 31.23 4.09 31.14 4.51 30.96 4.88 30.78 5.25 30.49 5.63 30.09 6.02L29.15 6.9C28.88 7.16 28.69 7.42 28.59 7.69 28.49 7.96 28.43 8.3 28.42 8.72L26.06 8.72ZM25.72 11.21C25.72 10.8 25.87 10.47 26.16 10.21 26.45 9.95 26.82 9.82 27.26 9.82 27.7 9.82 28.06 9.95 28.36 10.21 28.65 10.47 28.8 10.8 28.8 11.21 28.8 11.62 28.65 11.95 28.36 12.21 28.07 12.47 27.7 12.6 27.26 12.6 26.82 12.6 26.46 12.47 26.16 12.21 25.86 11.95 25.72 11.62 25.72 11.21Z" stroke="#024579" stroke-linejoin="round" stroke-miterlimit="10" fill="none"/></g></svg>