<?xml version="1.0" encoding="UTF-8"?>
<svg width="24px" height="29px" viewBox="0 0 24 29" version="1.1" xmlns="http://www.w3.org/2000/svg" xmlns:xlink="http://www.w3.org/1999/xlink">
    <title>ICON CertificatIon</title>
    <g id="ICON-CertificatIon" stroke="none" stroke-width="1" fill="none" fill-rule="evenodd">
        <g id="ICON-CertificatION" stroke="#024579">
            <path d="M18,9.5 C18,13.0895888 15.0894058,16 11.4995913,16 C7.9097768,16 5,13.0895888 5,9.5 C5,5.91041117 7.9097768,3 11.4995913,3 C15.0894058,3 18,5.91041117 18,9.5" id="Fill-1"></path>
            <path d="M20.3136368,9.5 C21.4392382,10.8723489 21.1609908,12.1792728 19.6215654,12.9312664 C20.1552014,14.5582211 19.426871,15.6286691 17.732163,15.7327185 C17.6281159,17.427463 16.557691,18.1550207 14.9307713,17.6213733 C14.1795822,19.1608319 12.8718982,19.4390853 11.4995788,18.3142479 C10.1280477,19.4390853 8.82036375,19.1608319 8.06917458,17.6213733 C6.44225491,18.1550207 5.37104182,17.427463 5.26778287,15.7327185 C3.57228664,15.6286691 2.84474456,14.5582211 3.37916876,12.9312664 C1.83895508,12.1792728 1.56070767,10.8723489 2.68630907,9.5 C1.56070767,8.12765108 1.83895508,6.82072719 3.37916876,6.06873358 C2.84474456,4.44177886 3.57228664,3.37133094 5.26778287,3.26728151 C5.37104182,1.57253702 6.44225491,0.844979263 8.06917458,1.37862672 C8.82036375,-0.160831891 10.1280477,-0.439085289 11.4995788,0.685752105 C12.8718982,-0.439085289 14.1795822,-0.160831891 14.9307713,1.37862672 C16.557691,0.844979263 17.6281159,1.57253702 17.732163,3.26728151 C19.426871,3.37133094 20.1552014,4.44177886 19.6215654,6.06873358 C21.1609908,6.82072719 21.4392382,8.12765108 20.3136368,9.5" id="Fill-3"></path>
            <polyline id="Fill-5" points="3.77689906 15 3.77689906 15.0046768 0 26.5353265 5.57003122 23.8687712 8.58272633 29 12 18.5598241 12 18.5551473"></polyline>
            <polyline id="Fill-7" points="12 18.5516569 12 18.5563353 15.4172737 29 18.4341311 23.8670565 24 26.5345029 20.2280957 15"></polyline>
            <line x1="10" y1="6.5" x2="13" y2="6.5" id="Fill-10"></line>
            <line x1="10" y1="13.5" x2="13" y2="13.5" id="Fill-12"></line>
            <line x1="11.5" y1="6" x2="11.5" y2="13" id="Fill-14"></line>
        </g>
    </g>
</svg>