<?xml version="1.0" encoding="UTF-8"?>
<svg width="24px" height="30px" viewBox="0 0 24 30" version="1.1" xmlns="http://www.w3.org/2000/svg" xmlns:xlink="http://www.w3.org/1999/xlink">
    <title>ICON Formation</title>
    <g id="ICON-Formation" stroke="none" stroke-width="1" fill="none" fill-rule="evenodd">
        <g stroke="#024579">
            <path d="M9.39177401,17.952144 L9.39693319,19.835844 C9.39885801,20.417376 9.01052601,20.927424 8.45024601,21.08134 L2.247882,23.04554 C0.909650001,23.469292 0.000322,24.711568 0.000322,26.115488 L0.000322,29.436596" id="Fill-4"></path>
            <path d="M23.1125804,29.436918 L23.1125804,26.037886 C23.1125804,24.65715 22.2322324,23.43033 20.9249124,22.987258 L15.0200764,20.988282 C14.4739644,20.829214 14.0972244,20.330114 14.0933604,19.761462 L14.0811244,18.019442" id="Fill-1"></path>
            <polygon id="Fill-6" points="11.7702592 5.24286841 2.4857112 2.6217884 11.7702592 6.44000002e-05 21.0548072 2.6217884"></polygon>
            <polyline id="Fill-9" points="17.90964 8.98991801 17.910928 8.98991801 17.910928 3.508834"></polyline>
            <polyline id="Fill-11" points="5.62965481 3.5087052 5.62965481 8.98978921 5.63094281 8.98978921"></polyline>
            <line x1="21.0548072" y1="2.6215952" x2="21.0548072" y2="5.81068321" id="Fill-13"></line>
            <polygon id="Fill-15" points="20.547464 8.98985361 21.519904 8.98985361 21.519904 5.81042561 20.547464 5.81042561"></polygon>
            <path d="M17.90964,8.98991801 L17.90964,12.146806 C17.90964,15.53811 15.160404,18.287346 11.7691,18.287346 C8.37779601,18.287346 5.62856001,15.53811 5.62856001,12.146806 L5.62856001,8.98991801" id="Fill-17"></path>
            <path d="M17.90964,7.40007521 C17.90964,8.10718721 15.160404,8.68034721 11.7691,8.68034721 C8.37779601,8.68034721 5.62856001,8.10718721 5.62856001,7.40007521" id="Fill-18"></path>
            <polyline id="Fill-19" points="11.7699372 29.436918 11.7699372 22.873914 9.31178921 20.415122"></polyline>
            <line x1="11.7699372" y1="22.8736564" x2="14.2338812" y2="20.4103564" id="Fill-20"></line>
        </g>
    </g>
</svg>