<?xml version="1.0" encoding="UTF-8"?>
<svg width="26px" height="30px" viewBox="0 0 26 30" version="1.1" xmlns="http://www.w3.org/2000/svg" xmlns:xlink="http://www.w3.org/1999/xlink">
    <title>ICON Principaux Mandants</title>
    <g id="ICON-Principaux-Mandants" stroke="none" stroke-width="1" fill="none" fill-rule="evenodd" stroke-linecap="round" stroke-linejoin="round">
        <g id="Group-31" transform="translate(3.000000, 0.000000)" stroke="#0E427A">
            <path d="M5.89123256,9.24418605 C5.89123256,9.24418605 5.78937209,11.8234884 7.56983721,12.805814 L7.56983721,13.2788372 C7.56983721,13.8732558 7.8865814,14.4223256 8.40146512,14.7202326 L10.0123953,15.6516279 L11.6233256,14.7202326 C12.1382093,14.4223256 12.4549535,13.8732558 12.4549535,13.2788372 L12.4549535,12.805814 C14.2354186,11.8234884 14.1335581,9.24418605 14.1335581,9.24418605" id="Stroke-1"></path>
            <path d="M12.454814,13.2789767 C12.454814,13.2789767 13.2738837,14.3624651 13.6624884,15.7543256 L11.9022558,17.5557209 L10.0129535,15.9092093 L8.12295349,17.5557209 L6.36202326,15.7543256 C6.75132558,14.3624651 7.57039535,13.2789767 7.57039535,13.2789767" id="Stroke-3"></path>
            <path d="M13.3803488,14.9455116 L18.1643023,16.5641163 C19.1201163,16.8878372 19.7633721,17.7843488 19.7633721,18.793186 L19.7633721,29.7920233" id="Stroke-5"></path>
            <path d="M6.64444186,14.9455116 L1.86048837,16.5641163 C0.904674419,16.8878372 0.261418605,17.7843488 0.261418605,18.793186 L0.261418605,29.7920233" id="Stroke-7"></path>
            <polyline id="Stroke-9" points="11.304 17.0347674 10.5302791 18.5996512 10.9488837 20.1136047"></polyline>
            <polyline id="Stroke-11" points="8.7207907 17.0347674 9.49451163 18.5996512 9.0124186 19.9440698"></polyline>
            <path d="M5.89123256,9.91974419 C5.89123256,9.91974419 4.62216279,9.81788372 4.49937209,8.34369767 C4.3765814,6.86951163 5.53402326,7.39625581 5.53402326,7.39625581 C5.18309302,6.56044186 5.22704651,6.04067442 5.19076744,5.08346512 C5.19076744,2.42044186 7.34937209,0.261837209 10.0123953,0.261837209 C12.6754186,0.261837209 14.8340233,2.42044186 14.8340233,5.08346512 C14.8591395,6.0574186 14.8416977,6.56044186 14.4907674,7.39625581 C14.4907674,7.39625581 15.6482093,6.86951163 15.5254186,8.34369767 C15.4026279,9.81788372 14.1335581,9.91974419 14.1335581,9.91974419" id="Stroke-13"></path>
            <path d="M7.76693023,2.976 C7.76693023,2.976 9.03669767,6.22646512 13.2513488,6.22646512" id="Stroke-15"></path>
            <path d="M6.98511628,5.31467442 C6.98511628,5.31467442 7.95767442,5.29513953 8.55488372,4.44397674" id="Stroke-17"></path>
            <polyline id="Stroke-19" points="11.9022558 17.5556512 10.0129535 22.6270465 8.12295349 17.5556512"></polyline>
            <polyline id="Stroke-21" points="13.3803488 14.9455116 15.5347674 18.2699302 13.3803488 18.1534186 14.2761628 19.509 10.0126744 22.626907"></polyline>
            <polyline id="Stroke-23" points="6.64444186 14.9455116 4.49002326 18.2699302 6.64444186 18.1534186 5.74862791 19.509 10.012814 22.626907"></polyline>
            <line x1="10.0126047" y1="29.7918837" x2="10.0126047" y2="22.6267674" id="Stroke-25"></line>
            <line x1="17.4904186" y1="20.1136744" x2="16.5715814" y2="29.791814" id="Stroke-27"></line>
            <line x1="2.53437209" y1="20.1136744" x2="3.4532093" y2="29.791814" id="Stroke-29"></line>
        </g>
    </g>
</svg>