<?xml version="1.0" encoding="UTF-8"?>
<svg width="29px" height="30px" viewBox="0 0 29 30" version="1.1" xmlns="http://www.w3.org/2000/svg" xmlns:xlink="http://www.w3.org/1999/xlink">
    <title>ICON Compétences transverses</title>
    <g id="ICON-Compétences-transverses" stroke="none" stroke-width="1" fill="none" fill-rule="evenodd">
        <g id="Path" stroke="#024579">
            <path d="M19.6827188,13.6464792 C19.6763188,13.6464792 19.6691188,13.6464792 19.6627188,13.6472792 L19.0171189,13.7032792 C18.8995189,13.7128792 18.8059189,13.8072792 18.7963189,13.9256792 L18.6715189,15.4280791 C18.0923189,15.5528791 17.535519,15.7552791 17.010719,16.030479 L15.950719,14.9576791 C15.9035191,14.9096791 15.8411191,14.8848791 15.7779191,14.8848791 C15.7299191,14.8848791 15.6811191,14.8992791 15.6387191,14.9288791 L15.1083191,15.3000791 C15.0115191,15.3672791 14.9771191,15.4952791 15.0283191,15.6024791 L15.6715191,16.965679 C15.2307191,17.363279 14.8491191,17.8176789 14.5331191,18.3184789 L13.0803192,17.9192789 C13.0587192,17.9136789 13.0371192,17.9104789 13.0155192,17.9104789 C12.9227192,17.9104789 12.8363192,17.9632789 12.7955192,18.0504789 L12.5219193,18.6368789 C12.4715193,18.7440789 12.5059193,18.8720789 12.6035192,18.9400789 L13.8419192,19.7984788 C13.6595192,20.3624788 13.5555192,20.9464788 13.5331192,21.5392787 L12.0747193,21.9200787 C11.9603193,21.9496787 11.8835193,22.0584787 11.8939193,22.1760787 L11.9499193,22.8208786 C11.9603193,22.9392786 12.0539193,23.0320786 12.1715193,23.0416786 L13.6747192,23.1664786 C13.7995192,23.7456786 14.0019192,24.3024786 14.2779191,24.8280785 L13.2043192,25.8872785 C13.1195192,25.9704785 13.1083192,26.1024784 13.1755192,26.1992784 L13.5467192,26.7296784 C13.5931192,26.7968784 13.6683192,26.8336784 13.7459192,26.8336784 C13.7811192,26.8336784 13.8163192,26.8264784 13.8491192,26.8104784 L15.2123191,26.1672784 C15.6099191,26.6080784 16.064319,26.9896784 16.565919,27.3056784 L16.165919,28.7584783 C16.134719,28.8720783 16.189919,28.9928783 16.297919,29.0432783 L16.883519,29.3168783 C16.916319,29.3320783 16.951519,29.3392783 16.985919,29.3392783 C17.064319,29.3392783 17.139519,29.3024783 17.185919,29.2352783 L18.0451189,27.9968783 C18.6083189,28.1792783 19.1923189,28.2824783 19.7859188,28.3056783 L20.1659188,29.7632782 L20.1659188,29.7640782 C20.1947188,29.8712782 20.2923188,29.9456782 20.4011188,29.9456782 C20.4083188,29.9456782 20.4155188,29.9456782 20.4227188,29.9448782 L21.0667187,29.8888782 C21.1851187,29.8784782 21.2787187,29.7848782 21.2883187,29.6664782 L21.4131187,28.1632783 C21.9923187,28.0384783 22.5491187,27.8360783 23.0739186,27.5608784 L24.1331186,28.6344783 C24.1811186,28.6816783 24.2435186,28.7064783 24.3067186,28.7064783 C24.3555185,28.7064783 24.4035185,28.6920783 24.4459185,28.6632783 L24.9763185,28.2920783 C25.0731185,28.2240783 25.1083185,28.0960783 25.0571185,27.9888783 L24.4139185,26.6264784 C24.8547185,26.2280784 25.2363185,25.7736785 25.5515185,25.2728785 L27.0043184,25.6720785 C27.0259184,25.6784785 27.0483184,25.6808785 27.0691184,25.6808785 C27.1619184,25.6808785 27.2491184,25.6280785 27.2891184,25.5408785 L27.5635184,24.9552785 C27.6139184,24.8472785 27.5795184,24.7192785 27.4819184,24.6520785 L26.2435184,23.7936786 C26.4259184,23.2296786 26.5291184,22.6456787 26.5523184,22.0520787 L28.0099183,21.6720787 C28.1243183,21.6424787 28.2011183,21.5336787 28.1907183,21.4152787 L28.1347183,20.7712788 C28.1339183,20.7568788 28.1315183,20.7432788 28.1283183,20.7304788 C28.1019183,20.6320788 28.0171183,20.5584788 27.9131183,20.5496788 L26.4099184,20.4256788 C26.2851184,19.8456788 26.0827184,19.2888789 25.8075185,18.7640789 L26.8811184,17.7048789 C26.9651184,17.6216789 26.9763184,17.489679 26.9091184,17.392879 L26.5387184,16.862479 C26.4915184,16.795279 26.4163184,16.758479 26.3395184,16.758479 C26.3043184,16.758479 26.2691184,16.765679 26.2355184,16.781679 L24.8731185,17.424879 C24.4747185,16.984079 24.0203186,16.602479 23.5195186,16.286479 L23.9187186,14.8336791 C23.9507186,14.7192791 23.8955186,14.5992791 23.7875186,14.5488791 L23.2011186,14.2752791 C23.1683186,14.2600792 23.1331186,14.2520792 23.0987186,14.2520792 C23.0211186,14.2520792 22.9451186,14.2896791 22.8987186,14.3568791 L22.0403187,15.5952791 C21.4763187,15.4128791 20.8923188,15.3096791 20.2987188,15.2864791 L19.9187188,13.8280792 C19.8899188,13.7200792 19.7923188,13.6464792 19.6827188,13.6464792"></path>
            <path d="M21.4600787,0 C21.4240787,0 21.3880787,0.00399999976 21.3512787,0.0135999992 L20.8960788,0.126399992 C20.6664788,0.183199989 20.5184788,0.410399976 20.5592788,0.643199962 L20.8096788,2.07759988 C20.3888788,2.28159986 20.0152788,2.55759985 19.6960788,2.90079983 L18.3976789,2.23919987 C18.3320789,2.20639987 18.2624789,2.19039987 18.1936789,2.19039987 C18.0392789,2.19039987 17.8888789,2.26879986 17.8048789,2.40879986 L17.562479,2.81119983 C17.440879,3.01359982 17.496079,3.2783998 17.6896789,3.4151998 L18.8816789,4.25279975 C18.7272789,4.69599972 18.6584789,5.15519969 18.6752789,5.62239966 L17.289679,6.07199964 C17.064879,6.14559963 16.933679,6.38239962 16.990479,6.61199961 L17.104079,7.06719958 C17.161679,7.27279957 17.340879,7.41039956 17.543279,7.41039956 C17.568079,7.41039956 17.594479,7.40879956 17.6208789,7.40399956 L19.0552789,7.15359957 C19.2592789,7.57439955 19.5352788,7.94799953 19.8784788,8.26719951 L19.2168789,9.56639943 C19.1096789,9.77679942 19.1840789,10.0367994 19.3864788,10.1583994 L19.7888788,10.4007994 C19.8608788,10.4439994 19.9416788,10.4655994 20.0216788,10.4655994 C20.1640788,10.4655994 20.3048788,10.3975994 20.3920788,10.2735994 L21.2304787,9.08159946 C21.6304787,9.22079945 22.0448787,9.29039945 22.4656787,9.29039945 C22.5096787,9.29039945 22.5552787,9.28959945 22.6000787,9.28799945 L23.0496786,10.6735994 C23.1112786,10.8623994 23.2896786,10.9855993 23.4808786,10.9855993 C23.5168786,10.9855993 23.5528786,10.9815993 23.5888786,10.9719993 L24.0448786,10.8591994 C24.2744786,10.8023994 24.4216785,10.5751994 24.3816785,10.3423994 L24.1312786,8.90799947 C24.5520785,8.70399948 24.9256785,8.4279995 25.2448785,8.08479952 L26.5432784,8.74639948 C26.6088784,8.77919948 26.6776784,8.79519948 26.7472784,8.79519948 C26.9016784,8.79519948 27.0520784,8.71679948 27.1360784,8.57679949 L27.3784784,8.17439951 C27.5000784,7.97199952 27.4440784,7.70719954 27.2512784,7.57039955 L26.0592784,6.7327996 C26.2128784,6.28959963 26.2824784,5.83039965 26.2656784,5.36399968 L27.6504784,4.91359971 C27.8752783,4.83999971 28.0072783,4.60319973 27.9496783,4.37359974 L27.8368783,3.91839977 C27.8360783,3.91679977 27.8360783,3.91439977 27.8352783,3.91279977 C27.7824783,3.71199978 27.5992784,3.57519979 27.3976784,3.57519979 C27.3720784,3.57519979 27.3456784,3.57759979 27.3200784,3.58239979 L25.8856785,3.83199977 C25.6816785,3.4111998 25.4056785,3.03759982 25.0624785,2.71839984 L25.7240785,1.41999992 C25.8304785,1.20959993 25.7560785,0.948799943 25.5536785,0.827199951 L25.1512785,0.584799965 C25.0792785,0.541599968 24.9992785,0.519999969 24.9200785,0.519999969 C24.7768785,0.519999969 24.6360785,0.587999965 24.5480785,0.711999958 L23.7104786,1.90399989 C23.3104786,1.76559989 22.8968786,1.6951999 22.4768787,1.6951999 C22.4320787,1.6951999 22.3864787,1.6959999 22.3408787,1.6975999 L21.8912787,0.312799981 C21.8288787,0.123199993 21.6512787,0 21.4600787,0"></path>
            <path d="M9.36871944,1.08231994 L9.63991943,2.28951986 C9.69351942,2.52711985 9.88391941,2.70871984 10.1239194,2.75031984 C10.3135194,2.78311983 10.5063194,2.82471983 10.6967194,2.87511983 C10.7479194,2.88791983 10.7991194,2.89511983 10.8503194,2.89511983 C11.0343193,2.89511983 11.2119193,2.80951983 11.3271193,2.65831984 L12.0775193,1.6735199 L13.4903192,2.40391986 L13.1207192,3.58711979 C13.0487192,3.81911977 13.1223192,4.07111976 13.3087192,4.22631975 C13.4575192,4.35111974 13.6031192,4.48391973 13.7423192,4.62151972 C13.8567192,4.73511972 14.0095192,4.79511971 14.1655192,4.79511971 C14.2431192,4.79511971 14.3215191,4.77991972 14.3967191,4.74871972 L15.5399191,4.27031975 L16.399119,5.60871967 L15.4887191,6.44791962 C15.3103191,6.61191961 15.2487191,6.86791959 15.3319191,7.09591958 C15.3999191,7.27991957 15.4599191,7.46791955 15.5103191,7.65511954 C15.5743191,7.88871953 15.7727191,8.06231952 16.013519,8.09271952 L17.240719,8.25031951 L17.315119,9.83911941 L16.107919,10.1095194 C15.8711191,10.1631194 15.6895191,10.3535194 15.6479191,10.5927194 C15.6151191,10.7831194 15.5727191,10.9759193 15.5223191,11.1671193 C15.4607191,11.4015193 15.5463191,11.6503193 15.7391191,11.7975193 L16.723919,12.5471193 L15.993519,13.9607192 L14.8103191,13.5903192 C14.7511191,13.5719192 14.6911191,13.5631192 14.6319191,13.5631192 C14.4567191,13.5631192 14.2871191,13.6399192 14.1711192,13.7791192 C14.0471192,13.9271192 13.9143192,14.0727192 13.7759192,14.2127192 C13.6055192,14.3847191 13.5551192,14.6431191 13.6495192,14.8663191 L14.1279192,16.009519 L12.7887192,16.868719 L11.9503193,15.958319 C11.8343193,15.8327191 11.6735193,15.7647191 11.5087193,15.7647191 C11.4391193,15.7647191 11.3687193,15.7767191 11.3007193,15.8023191 C11.1191193,15.8695191 10.9319193,15.9287191 10.7423194,15.980719 C10.5087194,16.043919 10.3351194,16.242319 10.3047194,16.483119 L10.1479194,17.7103189 L8.55831949,17.7855189 L8.28791951,16.577519 C8.23431951,16.340719 8.04391952,16.159119 7.80391953,16.117519 C7.61431955,16.085519 7.42151956,16.043119 7.23191957,15.992719 C7.18071957,15.979119 7.12871958,15.972719 7.07831958,15.972719 C6.89351959,15.972719 6.7159196,16.057519 6.60071961,16.208719 L5.85031965,17.193519 L4.43751974,16.463919 L4.80711971,15.2799191 C4.87911971,15.0487191 4.80471971,14.7959191 4.61831972,14.6407191 C4.46871973,14.5151191 4.32311974,14.3831191 4.18551975,14.2463192 C4.07111976,14.1327192 3.91831977,14.0719192 3.76311978,14.0719192 C3.68471978,14.0719192 3.60631979,14.0871192 3.53111979,14.1191192 L2.38791986,14.5975191 L1.52871991,13.2583192 L2.43911985,12.4199193 C2.61751984,12.2551193 2.67991984,11.9991193 2.59591985,11.7711193 C2.52791985,11.5871193 2.46791985,11.3999193 2.41751986,11.2119193 C2.35351986,10.9783193 2.15511987,10.8047194 1.91431989,10.7743194 L0.687119959,10.6175194 L0.612719963,9.02871946 L1.81991989,8.75751948 C2.05671988,8.70391948 2.23831987,8.51351949 2.27991986,8.27431951 C2.31271986,8.08471952 2.35511986,7.89111953 2.40551986,7.70151954 C2.46711985,7.46631955 2.38231986,7.21751957 2.18871987,7.07031958 L1.20391993,6.32071962 L1.93431988,4.90711971 L3.11751981,5.27671969 C3.17671981,5.29511968 3.23671981,5.30391968 3.2967198,5.30391968 C3.47111979,5.30391968 3.64071978,5.22711969 3.75671978,5.0887197 C3.88231977,4.93911971 4.01511976,4.79351971 4.15111975,4.65511972 C4.32231974,4.48311973 4.37271974,4.22471975 4.27911974,4.00151976 L3.79991977,2.85751983 L5.13911969,1.99831988 L5.97831964,2.90871983 C6.09351964,3.03431982 6.25431963,3.10231982 6.41911962,3.10231982 C6.48791961,3.10231982 6.55831961,3.09031982 6.62551961,3.06631982 C6.81271959,2.99751982 7.00071958,2.93671982 7.18471957,2.88711983 C7.41911956,2.82391983 7.59271955,2.62471984 7.62311955,2.38471986 L7.77991954,1.15671993 L9.36871944,1.08231994"></path>
        </g>
    </g>
</svg>