<?xml version="1.0" encoding="UTF-8"?>
<svg width="26px" height="27px" viewBox="0 0 26 27" version="1.1" xmlns="http://www.w3.org/2000/svg" xmlns:xlink="http://www.w3.org/1999/xlink">
    <title>ICON Compétences sectorielles</title>
    <g id="ICON-Compétences-sectorielles" stroke="none" stroke-width="1" fill="none" fill-rule="evenodd">
        <g stroke="#024579">
            <path d="M23.9416048,9.10411891 L20.5130369,9.10411891 C19.682229,9.10411891 19.008237,8.43012693 19.008237,7.59931896 L19.008237,6.64179099 C19.008237,5.81019101 19.682229,5.13619904 20.5130369,5.13619904 L23.9416048,5.13619904 C24.7724128,5.13619904 25.4464048,5.81019101 25.4464048,6.64179099 L25.4464048,7.59931896 C25.4464048,8.43012693 24.7724128,9.10411891 23.9416048,9.10411891" id="Fill-20"></path>
            <path d="M11.2301636,15.4401187 L11.2301636,24.6281104 C11.2301636,25.4525824 11.8986116,26.1202384 12.7230836,26.1202384 C13.5475556,26.1202384 14.2167955,25.4525824 14.2167955,24.6281104 L14.2167955,15.4401187" id="Fill-1"></path>
            <path d="M14.2163995,11.4724364 L14.2163995,2.28444473 C14.2163995,1.45997275 13.5479516,0.792316775 12.7234796,0.792316775 C11.8990076,0.792316775 11.2297676,1.45997275 11.2297676,2.28444473 L11.2297676,11.4724364" id="Fill-3"></path>
            <path d="M1.72616394,21.7761185 L1.72616394,24.6281104 C1.72616394,25.4525824 2.39461192,26.1202384 3.2190839,26.1202384 C4.04355587,26.1202384 4.71279585,25.4525824 4.71279585,24.6281104 L4.71279585,21.7761185" id="Fill-6"></path>
            <path d="M4.71239985,17.8084362 L4.71239985,2.28444473 C4.71239985,1.45997275 4.04395187,0.792316775 3.2194799,0.792316775 C2.39500792,0.792316775 1.72576794,1.45997275 1.72576794,2.28444473 L1.72576794,17.8084362" id="Fill-8"></path>
            <path d="M23.7203992,5.13643664 L23.7203992,2.28444473 C23.7203992,1.45997275 23.0519513,0.792316775 22.2274793,0.792316775 C21.4030073,0.792316775 20.7337673,1.45997275 20.7337673,2.28444473 L20.7337673,5.13643664" id="Fill-11"></path>
            <path d="M20.7341633,9.10411891 L20.7341633,24.6281104 C20.7341633,25.4525824 21.4026113,26.1202384 22.2270833,26.1202384 C23.0515553,26.1202384 23.7207952,25.4525824 23.7207952,24.6281104 L23.7207952,9.10411891" id="Fill-14"></path>
            <path d="M14.4376051,15.4401187 L11.0090372,15.4401187 C10.1782293,15.4401187 9.5042373,14.7661267 9.5042373,13.9353188 L9.5042373,12.9777908 C9.5042373,12.1461908 10.1782293,11.4721988 11.0090372,11.4721988 L14.4376051,11.4721988 C15.2684131,11.4721988 15.9424051,12.1461908 15.9424051,12.9777908 L15.9424051,13.9353188 C15.9424051,14.7661267 15.2684131,15.4401187 14.4376051,15.4401187" id="Fill-16"></path>
            <path d="M4.93360544,21.7761185 L1.50503755,21.7761185 C0.674229578,21.7761185 0.000237599992,21.1021265 0.000237599992,20.2713186 L0.000237599992,19.3137906 C0.000237599992,18.4821906 0.674229578,17.8081986 1.50503755,17.8081986 L4.93360544,17.8081986 C5.76441342,17.8081986 6.43840539,18.4821906 6.43840539,19.3137906 L6.43840539,20.2713186 C6.43840539,21.1021265 5.76441342,21.7761185 4.93360544,21.7761185" id="Fill-18"></path>
        </g>
    </g>
</svg>