<?xml version="1.0" encoding="UTF-8"?>
<svg width="26px" height="23px" viewBox="0 0 26 23" version="1.1" xmlns="http://www.w3.org/2000/svg" xmlns:xlink="http://www.w3.org/1999/xlink">
    <title>ICON Extrait de l’expérience professionnelle</title>
    <g id="ICON-Extrait-de-l’expérience-professionnelle" stroke="none" stroke-width="1" fill="none" fill-rule="evenodd">
        <g transform="translate(-0.000000, -0.000000)" stroke="#024579">
            <path d="M17.4387625,2.69777906 L17.4387625,1.83228435 C17.4387625,1.17450837 16.8956859,0.64110719 16.2259786,0.64110719 L9.28478138,0.64110719 C8.61376853,0.64110719 8.07069197,1.17450837 8.07069197,1.83228435 L8.07069197,2.69777906" id="Fill-1"></path>
            <path d="M8.68165309,14.6696865 L4.50871031,14.6696865 C4.1627601,14.6081402 3.81811537,14.5433884 3.47347063,14.4735077 L-0.000391641744,13.7747009 L-0.000391641744,4.92421611 C-0.000391641744,4.37927499 0.449343628,3.93819325 1.0035167,3.93819325 L24.0509806,3.93819325 C24.6058064,3.93819325 25.0542362,4.37927499 25.0542362,4.92421611 L25.0542362,13.7747009 L21.5816794,14.4735077 C21.2363819,14.5433884 20.8910845,14.6081402 20.545787,14.6696865 L16.3728442,14.6696865" id="Fill-4"></path>
            <path d="M24.5423605,15.0854445 L24.5423605,20.7829641 C24.5423605,21.3516262 24.0730431,21.8132234 23.4940661,21.8132234 L2.01643279,21.8132234 C1.43745575,21.8132234 0.967485656,21.3516262 0.967485656,20.7829641 L0.967485656,15.0854445" id="Fill-7"></path>
            <path d="M11.583849,15.8949706 L13.4709094,15.8949706 C14.0420536,15.8949706 14.5094128,15.4352967 14.5094128,14.8743279 L14.5094128,14.4659426 C14.5094128,13.9049738 14.0420536,13.4453 13.4709094,13.4453 L11.583849,13.4453 C11.0127048,13.4453 10.5446929,13.9049738 10.5446929,14.4659426 L10.5446929,14.8743279 C10.5446929,15.4352967 11.0127048,15.8949706 11.583849,15.8949706" id="Fill-10"></path>
        </g>
    </g>
</svg>