<svg width="42.07" height="45.25" viewBox="0 0 42.07 45.25" xmlns="http://www.w3.org/2000/svg" xmlns:xlink="http://www.w3.org/1999/xlink" overflow="hidden"><defs></defs><g><g><path d="M12.64 27.02C12.54 27 12.46 26.94 12.41 26.85L11.53 25.05C11.42 25 11.32 24.95 11.21 24.9L9.26 25.36C9.15 25.39 9.03 25.35 8.95 25.26L7.5 23.65C7.42 23.56 7.4 23.44 7.44 23.33L8.09 21.44C8.05 21.33 8.01 21.22 7.97 21.11L6.27 20.06C6.17 20 6.11 19.89 6.12 19.77L6.23 17.6C6.24 17.48 6.3 17.38 6.41 17.33L8.21 16.45C8.26 16.34 8.31 16.24 8.36 16.13L7.9 14.18C7.87 14.07 7.91 13.95 8 13.87L9.61 12.41C9.7 12.33 9.82 12.31 9.93 12.35L11.81 13C11.92 12.96 12.03 12.92 12.14 12.88L13.19 11.18C13.25 11.08 13.36 11.02 13.48 11.03L15.66 11.14C15.78 11.15 15.88 11.21 15.93 11.32L16.81 13.12C16.92 13.17 17.03 13.22 17.13 13.27L19.08 12.81C19.19 12.78 19.31 12.82 19.39 12.91L20.85 14.52C20.93 14.61 20.95 14.73 20.91 14.84L20.26 16.73C20.3 16.84 20.34 16.95 20.38 17.06L22.08 18.11C22.18 18.17 22.24 18.28 22.23 18.4L22.12 20.58C22.11 20.7 22.05 20.8 21.94 20.85L20.14 21.73C20.09 21.84 20.04 21.94 19.99 22.05L20.45 24C20.48 24.11 20.44 24.23 20.35 24.31L18.74 25.77C18.65 25.85 18.53 25.87 18.42 25.83L16.53 25.18C16.42 25.22 16.31 25.26 16.2 25.3L15.15 27C15.09 27.1 14.98 27.16 14.86 27.15L12.69 27.04C12.67 27.02 12.65 27.02 12.64 27.02Z" stroke="#024579" stroke-linejoin="round" stroke-miterlimit="10" fill="none"/><path d="M13.43 22.82C12.63 22.66 11.9 22.25 11.34 21.64 10.66 20.88 10.31 19.91 10.36 18.89 10.46 16.79 12.26 15.16 14.36 15.27 16.46 15.38 18.09 17.17 17.98 19.27 17.93 20.29 17.49 21.22 16.73 21.91 15.97 22.59 15 22.94 13.98 22.89 13.79 22.88 13.61 22.86 13.43 22.82Z" stroke="#024579" stroke-linejoin="round" stroke-miterlimit="10" fill="none"/></g><g><path d="M26.9 20.2C26.67 19.99 26.55 19.67 26.6 19.35L26.83 17.83C26.46 17.45 26.16 17.02 25.92 16.55L24.37 16.29C23.95 16.22 23.62 15.87 23.58 15.45L23.49 14.59C23.45 14.16 23.69 13.76 24.09 13.6L25.55 13.03C25.68 12.52 25.89 12.03 26.17 11.58L25.63 10.14C25.48 9.74 25.62 9.28 25.96 9.03L26.66 8.52C27.01 8.27 27.48 8.28 27.82 8.55L28.94 9.44C29.27 9.34 29.61 9.26 29.95 9.23 30.2 9.2 30.46 9.2 30.72 9.21L31.59 8.16C31.86 7.83 32.33 7.72 32.72 7.89L33.51 8.24C33.9 8.41 34.13 8.83 34.07 9.26L33.88 10.5C34.39 10.96 34.8 11.51 35.09 12.12L36.29 12.32C36.71 12.39 37.04 12.74 37.08 13.16L37.17 14.02C37.22 14.45 36.97 14.85 36.57 15.01L35.43 15.46C35.27 16.12 34.98 16.75 34.58 17.3L35.02 18.48C35.17 18.88 35.03 19.34 34.69 19.59L34 20.09C33.65 20.34 33.18 20.33 32.84 20.06L31.77 19.21C31.52 19.28 31.26 19.32 31.01 19.35 30.67 19.39 30.32 19.39 29.98 19.35L29.07 20.45C28.8 20.78 28.33 20.89 27.94 20.72L27.15 20.37C27.06 20.33 26.97 20.27 26.9 20.2Z" stroke="#024579" stroke-linejoin="round" stroke-miterlimit="10" fill="none"/><path d="M31.86 12.64C31.83 12.61 31.79 12.58 31.75 12.55 31.28 12.17 30.7 12 30.1 12.06 29.5 12.12 28.96 12.42 28.59 12.88 28.21 13.35 28.04 13.93 28.1 14.53 28.16 15.13 28.46 15.67 28.92 16.04 29.39 16.42 29.97 16.59 30.57 16.53 31.81 16.4 32.7 15.29 32.57 14.05 32.51 13.51 32.26 13.01 31.86 12.64Z" stroke="#024579" stroke-linejoin="round" stroke-miterlimit="10" fill="none"/></g><g><path d="M17.27 9.73 18.25 10.24 19.42 8.72C19.46 8.67 19.52 8.65 19.58 8.66 20.08 8.75 20.61 8.73 21.1 8.59 21.16 8.57 21.22 8.59 21.26 8.64L22.56 10.05 23.49 9.46 22.76 7.68C22.74 7.62 22.75 7.56 22.79 7.51 22.96 7.31 23.1 7.1 23.22 6.87L23.22 6.87C23.34 6.65 23.43 6.4 23.5 6.15 23.52 6.09 23.56 6.05 23.62 6.03L25.49 5.61 25.44 4.51 23.54 4.25C23.48 4.24 23.43 4.2 23.41 4.14 23.24 3.66 22.96 3.21 22.59 2.85 22.55 2.81 22.53 2.74 22.55 2.69L23.12 0.86 22.14 0.35 20.97 1.87C20.93 1.92 20.87 1.94 20.81 1.93 20.31 1.84 19.78 1.86 19.29 2 19.23 2.02 19.17 2 19.13 1.95L17.83 0.54 16.9 1.15 17.63 2.93C17.65 2.99 17.64 3.05 17.6 3.1 17.43 3.3 17.29 3.51 17.17 3.74 17.05 3.96 16.96 4.21 16.89 4.46 16.87 4.52 16.83 4.56 16.77 4.58L14.9 4.99 14.95 6.09 16.85 6.35C16.91 6.36 16.96 6.4 16.98 6.46 17.15 6.94 17.43 7.39 17.8 7.75 17.84 7.79 17.86 7.86 17.84 7.91L17.27 9.73Z" stroke="#024579" stroke-linejoin="round" stroke-miterlimit="10" fill="none"/><path d="M20.23 3.84C20.07 3.84 19.91 3.86 19.76 3.91 19.39 4.03 19.08 4.28 18.9 4.63 18.72 4.98 18.68 5.37 18.8 5.75 18.92 6.12 19.17 6.43 19.52 6.61 20.24 6.98 21.12 6.7 21.5 5.99 21.87 5.27 21.59 4.39 20.88 4.01 20.67 3.9 20.45 3.85 20.23 3.84Z" stroke="#024579" stroke-linejoin="round" stroke-miterlimit="10" fill="none"/></g><path d="M0.38 29.41 4.06 29.41 4.06 44.87 0.38 44.87" stroke="#024579" stroke-linejoin="round" stroke-miterlimit="10" fill="none"/><path d="M21.93 35.39 26.63 37.98 39.66 29.92C39.81 29.83 39.99 29.78 40.16 29.78 40.79 29.78 41.35 30.21 41.5 30.82L41.63 31.35C41.8 32.03 41.54 32.75 40.98 33.17L27.22 43.39C26.84 43.68 26.4 43.89 25.94 44.02L25.29 44.2C24.85 44.32 24.38 44.31 23.95 44.17L10.3 39.64C9.68 39.43 9 39.48 8.41 39.78L4.06 41.91" stroke="#024579" stroke-linejoin="round" stroke-miterlimit="10" fill="none"/><path d="M4.06 32.61 13.93 29.96C14.3 29.84 14.69 29.8 15.07 29.85L30.13 31.76C30.81 31.85 31.3 32.45 31.24 33.13L31.17 33.95C31.11 34.68 30.5 35.25 29.76 35.26L21.92 35.39 18.76 35.28" stroke="#024579" stroke-linejoin="round" stroke-miterlimit="10" fill="none"/><path d="M29.52 31.68 35.37 29.36C35.68 29.25 36.03 29.25 36.34 29.36L36.34 29.36C37.06 29.61 37.54 30.29 37.54 31.05L37.54 31.24" stroke="#024579" stroke-linejoin="round" stroke-miterlimit="10" fill="none"/></g></svg>