<svg width="122.57" height="107.45" viewBox="0 0 122.57 107.45" xmlns="http://www.w3.org/2000/svg" xmlns:xlink="http://www.w3.org/1999/xlink" overflow="hidden"><defs></defs><g><g><path d="M106.56 66.72 110.93 16.73C111.17 13.95 108.98 11.56 106.19 11.56L73.89 11.56C71.8 11.56 70.16 9.77 70.34 7.68L70.53 5.53C70.71 3.45 69.07 1.65 66.98 1.65L33.92 1.65C32.07 1.65 30.53 3.06 30.37 4.9L30.07 8.29C29.91 10.13 28.37 11.54 26.52 11.54L26.02 11.54C23.56 11.54 21.5 13.42 21.28 15.88L21.04 18.67" stroke="#024579" stroke-width="2.5625" stroke-linejoin="round" stroke-miterlimit="10" fill="none"/><line x1="34.48" y1="6.61" x2="66.17" y2="6.61" stroke="#024579" stroke-width="2.5625" stroke-linejoin="round" stroke-miterlimit="10" fill="none"/><line x1="34.05" y1="11.56" x2="65.74" y2="11.56" stroke="#024579" stroke-width="2.5625" stroke-linejoin="round" stroke-miterlimit="10" fill="none"/></g><path d="M53.24 77.12 17.85 77.12C16.24 77.12 14.82 76.04 14.41 74.48L1.78 27.34C1.17 25.08 2.88 22.85 5.22 22.85L24.06 22.85C26.21 22.85 28.09 24.3 28.65 26.37L29.81 30.7C30.23 32.26 31.64 33.34 33.25 33.34L89.45 33.34C91.6 33.34 93.48 34.79 94.04 36.86L95.2 41.17" stroke="#024579" stroke-width="2.5625" stroke-linejoin="round" stroke-miterlimit="10" fill="none"/><path d="M102.89 69.86 104.84 77.12 102.86 77.12" stroke="#024579" stroke-width="2.5625" stroke-linejoin="round" stroke-miterlimit="10" fill="none"/><line x1="48.8" y1="57.71" x2="42.6" y2="57.71" stroke="#024579" stroke-width="2.5625" stroke-linejoin="round" stroke-miterlimit="10" fill="none"/><line x1="40.96" y1="51.57" x2="49.91" y2="51.57" stroke="#024579" stroke-width="2.5625" stroke-linejoin="round" stroke-miterlimit="10" fill="none"/><path d="M52.6 45.43 32.56 45.43 37.5 63.85 48.01 63.85" stroke="#024579" stroke-width="2.5625" stroke-linejoin="round" stroke-miterlimit="10" fill="none"/><path d="M33.29 26.77 33.95 19.28 103.81 19.28 101.69 43.45" stroke="#024579" stroke-width="2.5625" stroke-linejoin="round" stroke-miterlimit="10" fill="none"/><circle cx="76.52" cy="61.4" r="24.1" stroke="#024579" stroke-width="2.5625" stroke-linejoin="round" stroke-miterlimit="10" fill="none"/><circle cx="76.52" cy="61.4" r="17.76" stroke="#024579" stroke-width="2.5625" stroke-linejoin="round" stroke-miterlimit="10" fill="none"/><path d="M96.14 75.86 103.87 83.6 98.71 88.75 90.98 81.02" stroke="#024579" stroke-width="2.5625" stroke-linejoin="round" stroke-miterlimit="10" fill="none"/><rect x="103.16" y="82.97" width="11.73" height="21.88" stroke="#024579" stroke-width="2.5625" stroke-linejoin="round" stroke-miterlimit="10" fill="none" transform="matrix(0.7071 -0.7071 0.7071 0.7071 -34.4708 104.599)"/><line x1="112.84" y1="89.43" x2="104.88" y2="97.38" stroke="#024579" stroke-width="2.5625" stroke-linejoin="round" stroke-miterlimit="10" fill="none"/><line x1="109.14" y1="85.73" x2="101.18" y2="93.69" stroke="#024579" stroke-width="2.5625" stroke-linejoin="round" stroke-miterlimit="10" fill="none"/></g></svg>