<svg xmlns="http://www.w3.org/2000/svg" width="23" height="23" viewBox="0 0 23 23"><style>.a{fill:none;stroke-linejoin:round;stroke:#0E427A;}</style><desc>  Created with Lunacy</desc><path d="M0.9 21.7L1.3 22.1C1.8 22.6 2.6 22.6 3.1 22.1L9.4 15.8C9.5 15.7 9.5 15.5 9.4 15.4L7.6 13.5C7.5 13.4 7.3 13.4 7.2 13.5L0.9 19.9C0.4 20.4 0.4 21.2 0.9 21.7Z" class="a"/><path d="M9.2 12.4L7.8 13.8 9.2 15.2 10.6 13.8" class="a"/><path d="M9.8 2.7C6.9 5.6 6.9 10.3 9.8 13.2 12.7 16.1 17.4 16.1 20.3 13.2 23.2 10.3 23.2 5.6 20.3 2.7 17.4-0.2 12.7-0.2 9.8 2.7Z" class="a"/><path d="M11.5 4.4C9.6 6.3 9.6 9.5 11.5 11.5 13.5 13.4 16.6 13.4 18.6 11.5 20.5 9.5 20.5 6.3 18.6 4.4 16.6 2.4 13.5 2.4 11.5 4.4Z" class="a"/></svg>