<svg width="43.39" height="44.54" viewBox="0 0 43.39 44.54" xmlns="http://www.w3.org/2000/svg" xmlns:xlink="http://www.w3.org/1999/xlink" overflow="hidden"><defs></defs><g><path d="M6.55 13.72 6.55 8.16 14.21 0.5 37.33 0.5 37.33 25.86" stroke="#024579" stroke-width="0.895833" stroke-linejoin="round" stroke-miterlimit="10" fill="none"/><path d="M37.33 40.15 37.33 44.04 11.85 44.04" stroke="#024579" stroke-width="0.895833" stroke-linejoin="round" stroke-miterlimit="10" fill="none"/><line x1="6.55" y1="8.16" x2="14.21" y2="0.5" stroke="#024579" stroke-width="0.895833" stroke-linejoin="round" stroke-miterlimit="10" fill="none"/><path d="M14.21 0.5 14.21 8.17 6.55 8.16" stroke="#024579" stroke-width="0.895833" stroke-linejoin="round" stroke-miterlimit="10" fill="none"/></g><g><line x1="19.75" y1="8.76" x2="32.67" y2="8.76" stroke="#024579" stroke-width="0.895833" stroke-linejoin="round" stroke-miterlimit="10" fill="none"/><line x1="11.21" y1="14.17" x2="32.67" y2="14.17" stroke="#024579" stroke-width="0.895833" stroke-linejoin="round" stroke-miterlimit="10" fill="none"/><line x1="24.32" y1="19.57" x2="30.78" y2="19.57" stroke="#024579" stroke-width="0.895833" stroke-linejoin="round" stroke-miterlimit="10" fill="none"/><line x1="11.21" y1="19.57" x2="16.62" y2="19.57" stroke="#024579" stroke-width="0.895833" stroke-linejoin="round" stroke-miterlimit="10" fill="none"/><line x1="21.94" y1="24.97" x2="32.67" y2="24.97" stroke="#024579" stroke-width="0.895833" stroke-linejoin="round" stroke-miterlimit="10" fill="none"/><line x1="14.21" y1="24.97" x2="15.25" y2="24.97" stroke="#024579" stroke-width="0.895833" stroke-linejoin="round" stroke-miterlimit="10" fill="none"/><line x1="26.21" y1="30.37" x2="28.92" y2="30.37" stroke="#024579" stroke-width="0.895833" stroke-linejoin="round" stroke-miterlimit="10" fill="none"/><line x1="14.21" y1="30.37" x2="18.71" y2="30.37" stroke="#024579" stroke-width="0.895833" stroke-linejoin="round" stroke-miterlimit="10" fill="none"/><line x1="12.59" y1="35.77" x2="32.67" y2="35.77" stroke="#024579" stroke-width="0.895833" stroke-linejoin="round" stroke-miterlimit="10" fill="none"/></g><g><g><path d="M42.48 39.05 42.08 39.45C41.53 40 40.64 40 40.08 39.45L33.29 32.66C33.18 32.55 33.18 32.38 33.29 32.28L35.3 30.27C35.41 30.16 35.58 30.16 35.68 30.27L42.47 37.06C43.03 37.6 43.03 38.5 42.48 39.05Z" stroke="#024579" stroke-width="0.895833" stroke-linejoin="round" stroke-miterlimit="10" fill="none"/><path d="M33.59 29.04 35.05 30.51 33.54 32.02 32.08 30.56" stroke="#024579" stroke-width="0.895833" stroke-linejoin="round" stroke-miterlimit="10" fill="none"/><path d="M32.89 18.57C36.01 21.69 36.01 26.74 32.89 29.86 29.77 32.98 24.72 32.98 21.6 29.86 18.48 26.74 18.48 21.69 21.6 18.57 24.72 15.45 29.77 15.45 32.89 18.57Z" stroke="#024579" stroke-width="0.895833" stroke-linejoin="round" stroke-miterlimit="10" fill="none"/></g></g><path d="M6.55 22.04C5.03 22.04 3.8 20.5 3.8 18.61 3.8 16.72 5.03 15.18 6.55 15.18 8.07 15.18 9.3 16.72 9.3 18.61 9.3 20.5 8.07 22.04 6.55 22.04Z" stroke="#024579" stroke-width="0.895833" stroke-linejoin="round" stroke-miterlimit="10" fill="none"/><path d="M3.23 34.34C1.63 33.71 0.5 32.14 0.5 30.32L0.5 28.3C0.5 25.91 2.44 23.98 4.82 23.98L8.26 23.98C10.65 23.98 12.58 25.92 12.58 28.3L12.58 30.31C12.58 32.14 11.45 33.7 9.85 34.33" stroke="#024579" stroke-width="0.895833" stroke-linejoin="round" stroke-miterlimit="10" fill="none"/><line x1="6.55" y1="42.24" x2="6.55" y2="34.34" stroke="#024579" stroke-width="0.895833" stroke-linejoin="round" stroke-miterlimit="10" fill="none"/><path d="M3.33 27.63 3.33 42.24C3.33 42.24 5.06 43.73 6.54 42.24 8.03 43.73 9.75 42.24 9.75 42.24L9.75 27.63" stroke="#024579" stroke-width="0.895833" stroke-linejoin="round" stroke-miterlimit="10" fill="none"/></svg>