<svg width="38.64" height="30.37" viewBox="0 0 38.64 30.37" xmlns="http://www.w3.org/2000/svg" xmlns:xlink="http://www.w3.org/1999/xlink" overflow="hidden"><defs></defs><path d="M25.68 2.6 23.58 0.5 15.05 0.5 12.95 2.6" stroke="#024579" stroke-linejoin="round" stroke-miterlimit="10" fill="none"/><path d="M26.72 17.75 36.23 16.91C37.31 16.81 38.14 15.91 38.14 14.83L38.14 7.06C38.14 5.9 37.2 4.97 36.05 4.97L2.59 4.97C1.44 4.96 0.5 5.9 0.5 7.06L0.5 14.84C0.5 15.92 1.33 16.83 2.41 16.92L11.92 17.76" stroke="#024579" stroke-linejoin="round" stroke-miterlimit="10" fill="none"/><path d="M1.75 19.61 1.75 27.78C1.75 28.94 2.69 29.88 3.85 29.88L34.79 29.88C35.95 29.88 36.89 28.94 36.89 27.78L36.89 19.61" stroke="#024579" stroke-linejoin="round" stroke-miterlimit="10" fill="none"/><path d="M15.19 19.12 15.19 17.7C15.19 16.79 15.93 16.05 16.84 16.05L21.8 16.05C22.71 16.05 23.45 16.79 23.45 17.7L23.45 19.12C23.45 20.03 22.71 20.77 21.8 20.77L16.84 20.77C15.93 20.77 15.19 20.03 15.19 19.12Z" stroke="#024579" stroke-linejoin="round" stroke-miterlimit="10" fill="none"/></svg>